<svg id="Soild" enable-background="new 0 0 512 512" height="512" viewBox="0 0 512 512" width="512" xmlns="http://www.w3.org/2000/svg"><path d="m256 16c-88.366 0-160 71.634-160 160s71.634 160 160 160 160-71.634 160-160-71.634-160-160-160zm108.291 228.272-13.527-8.545c11.276-17.85 17.236-38.503 17.236-59.727 0-61.757-50.243-112-112-112s-112 50.243-112 112 50.243 112 112 112c31.818 0 62.247-13.608 83.483-37.335l11.922 10.671c-24.268 27.113-59.042 42.664-95.405 42.664-70.58 0-128-57.42-128-128s57.42-128 128-128 128 57.42 128 128c0 24.253-6.815 47.861-19.709 68.272zm-20.291-76.272v16h-16v-16zm-48.804-24h16.804v16h-16.804c-3.716 18.236-19.879 32-39.196 32h-37.784c-1.222 0-2.216.994-2.216 2.216 0 .774.412 1.502 1.076 1.9l75.04 45.024-8.231 13.72-75.04-45.024c-5.456-3.273-8.844-9.258-8.844-15.62 0-10.044 8.171-18.216 18.216-18.216h37.783c10.43 0 19.327-6.688 22.629-16h-62.629v-16h62.629c-3.302-9.312-12.199-16-22.629-16h-56v-16h120v16h-32.019c3.5 4.653 6.011 10.092 7.215 16zm-111.196 24v16h-16v-16z"/><path d="m448 40h16v16h-16z"/><path d="m448 72h16v16h-16z"/><path d="m432 56h16v16h-16z"/><path d="m464 56h16v16h-16z"/><path d="m48 240h16v16h-16z"/><path d="m48 272h16v16h-16z"/><path d="m32 256h16v16h-16z"/><path d="m64 256h16v16h-16z"/><path d="m368 344h32v128h-32z"/><path d="m352 371.417c-18.823-16.856-47.86-16.244-65.941 1.837l-10.746 10.746h-39.313c-15.439 0-28 12.561-28 28v4h96v16h-112v-20c0-1.348.061-2.682.181-4h-16.181l-40-16-24-24h-36.687l41.182 41.182 37.046 14.818h14.459v16h-16c-1.018 0-2.026-.194-2.971-.572l-40-16c-1.006-.402-1.919-1.005-2.686-1.771l-61.657-61.657h-36.686v8l88 88 144 40 112-29.867z"/><path d="m416 328v159h81v-159zm57 136h-32v-16h32z"/></svg>